<svg width="157" height="24" viewBox="0 0 157 24" fill="none" xmlns="http://www.w3.org/2000/svg">
<path d="M13.5711 16.6171C13.4241 16.7641 13.2761 16.8381 13.1291 16.7641C12.9252 16.6809 12.728 16.5823 12.5391 16.4691C12.1988 16.2242 11.8781 15.9531 11.5801 15.6581C11.2111 15.2891 10.8431 14.9941 10.4001 14.5521C10.0311 14.1831 9.5891 13.7411 9.2201 13.2981C8.85336 12.874 8.5089 12.431 8.1881 11.9711C7.33271 13.0253 6.39654 14.0113 5.3881 14.9201C4.36426 15.8595 3.25286 16.6986 2.0691 17.4261C1.95475 17.4946 1.83017 17.5442 1.7001 17.5731C1.6261 17.5731 1.4791 17.4991 1.3311 17.2781L0.151097 15.7301C0.0952793 15.672 0.0531279 15.6022 0.0276988 15.5257C0.00226966 15.4493 -0.00579289 15.3681 0.00410107 15.2881C0.0781011 15.2141 0.151099 15.0671 0.299099 14.9931C2.21953 13.7101 3.93492 12.1441 5.3871 10.3481C6.07406 9.49947 6.71402 8.61381 7.3041 7.69513C7.81241 6.83009 8.23252 5.91617 8.5581 4.96714C8.6321 4.67214 8.5581 4.45113 8.1891 4.45113H2.2161C2.0553 4.46113 1.89688 4.40844 1.7741 4.30414C1.70705 4.19357 1.68087 4.063 1.7001 3.93513V2.16514C1.69338 2.09636 1.70322 2.02698 1.72879 1.96278C1.75437 1.89859 1.79493 1.84145 1.8471 1.79613C1.95766 1.72908 2.08823 1.7029 2.2161 1.72213H10.3271C10.8784 1.68841 11.4247 1.84438 11.8751 2.16413C12.0608 2.29917 12.2113 2.47685 12.314 2.6822C12.4166 2.88755 12.4685 3.11457 12.4651 3.34413C12.4771 3.56803 12.4521 3.79237 12.3911 4.00813C12.322 4.22455 12.2728 4.4468 12.2441 4.67214C12.0147 5.50552 11.7187 6.31913 11.3591 7.10513C10.9594 7.96271 10.5165 8.79945 10.0321 9.61213C10.3358 10.1267 10.7078 10.5976 11.1381 11.0121C11.5071 11.4541 11.9491 11.8971 12.3921 12.3391C12.7892 12.7308 13.2079 13.1 13.6461 13.4451C14.0881 13.8141 14.4571 14.1091 14.8261 14.4041C15.1211 14.6251 15.1211 14.9201 14.8261 15.2151L13.5711 16.6171ZM19.2491 23.2531H16.8161C16.6882 23.2724 16.5577 23.2462 16.4471 23.1791C16.3731 23.1051 16.3731 23.0321 16.3731 22.8101V0.468135C16.3479 0.406331 16.3414 0.33845 16.3546 0.273008C16.3678 0.207565 16.4 0.147472 16.4472 0.100267C16.4944 0.0530612 16.5545 0.0208451 16.62 0.00765718C16.6854 -0.00553077 16.7533 0.000897544 16.8151 0.0261356H19.2481C19.3099 0.000897544 19.3778 -0.00553077 19.4432 0.00765718C19.5087 0.0208451 19.5688 0.0530612 19.616 0.100267C19.6632 0.147472 19.6954 0.207565 19.7086 0.273008C19.7218 0.33845 19.7153 0.406331 19.6901 0.468135V22.7371C19.6901 22.9581 19.6901 23.0321 19.6161 23.1061C19.5156 23.1979 19.3852 23.2501 19.2491 23.2531Z" fill="#FF7F00"/>
<path d="M37.3881 13.2982C36.5849 13.4681 35.7725 13.5913 34.9551 13.6672C34.0701 13.7412 33.1851 13.8882 32.2271 13.9622C31.2691 14.0362 30.3841 14.1092 29.4271 14.1092H26.7721C26.471 14.109 26.172 14.0593 25.8871 13.9622C25.6708 13.9094 25.4691 13.8086 25.2971 13.6672C25.1566 13.523 25.0551 13.3454 25.0021 13.1512C24.9336 12.8867 24.9086 12.6128 24.9281 12.3402V7.62121C24.9281 7.10521 25.0021 6.73621 25.2231 6.58921C25.5397 6.35157 25.9361 6.24584 26.3291 6.29421H31.6381C31.7851 6.29421 31.8591 6.29421 31.9331 6.22021C32.0071 6.14621 32.0071 6.07321 32.0071 5.92521V4.30321C32.0071 4.15621 32.0071 4.08221 31.9331 4.00821C31.8591 3.93421 31.7861 3.93421 31.6381 3.93421H25.5181C25.2231 3.93421 25.0021 3.78721 25.0021 3.49221V1.72621C25.0046 1.58943 25.0569 1.45826 25.1491 1.35721C25.2596 1.29016 25.3902 1.26397 25.5181 1.28321H33.8501C34.1471 1.2644 34.4453 1.28934 34.7351 1.35721C34.9293 1.41023 35.1069 1.51174 35.2511 1.65221C35.3231 1.71707 35.3802 1.79681 35.4183 1.88591C35.4565 1.975 35.4748 2.07132 35.4721 2.16821C35.5405 2.43275 35.5655 2.70665 35.5461 2.97921V7.17921C35.5934 7.65212 35.4617 8.12559 35.1771 8.50621C34.8195 8.78095 34.3724 8.91251 33.9231 8.87521H28.7611C28.5401 8.87521 28.4661 8.94921 28.4661 9.17021V11.0862C28.4661 11.3072 28.6131 11.3812 28.8351 11.3812C30.2623 11.4072 31.69 11.3581 33.1121 11.2342C34.5121 11.0872 35.8401 10.9392 37.1671 10.7182H37.4621C37.5361 10.7922 37.5361 10.8652 37.6091 11.0132L37.9041 12.7832V13.1522C37.7434 13.2345 37.568 13.2841 37.3881 13.2982ZM42.6971 23.2522H29.2771C28.7806 23.3093 28.2809 23.1775 27.8771 22.8832C27.5943 22.474 27.4638 21.9787 27.5081 21.4832V16.5432C27.5001 16.4735 27.508 16.4029 27.5311 16.3367C27.5542 16.2704 27.5919 16.2103 27.6415 16.1607C27.6911 16.1111 27.7513 16.0733 27.8175 16.0502C27.8838 16.0271 27.9544 16.0192 28.0241 16.0272H30.4571C30.5268 16.0192 30.5974 16.0271 30.6636 16.0502C30.7298 16.0733 30.79 16.1111 30.8396 16.1607C30.8892 16.2103 30.927 16.2704 30.9501 16.3367C30.9732 16.4029 30.9811 16.4735 30.9731 16.5432V20.0822C30.97 20.1315 30.9774 20.1808 30.9949 20.227C31.0124 20.2731 31.0394 20.3151 31.0743 20.35C31.1092 20.3849 31.1511 20.4119 31.1973 20.4294C31.2435 20.4468 31.2928 20.4543 31.3421 20.4512H42.6971C42.8246 20.4398 42.9528 20.4655 43.0661 20.5252C43.1182 20.5705 43.1588 20.6277 43.1844 20.6919C43.21 20.7561 43.2198 20.8254 43.2131 20.8942V22.8112C43.2131 23.0322 43.1391 23.1802 43.0661 23.1802C42.9446 23.2118 42.8214 23.2351 42.6971 23.2522ZM45.2781 10.1262H42.2551V16.1722C42.2744 16.3001 42.2482 16.4307 42.1811 16.5412C42.1071 16.6152 42.0341 16.6152 41.8121 16.6152H39.3051C39.1772 16.6344 39.0466 16.6083 38.9361 16.5412C38.8439 16.4402 38.7916 16.309 38.7891 16.1722V0.468207C38.7891 0.173207 38.9361 0.026208 39.3051 0.026208H41.8121C41.8721 0.0177 41.9333 0.023268 41.9908 0.0424719C42.0483 0.0616759 42.1006 0.0939885 42.1434 0.136859C42.1863 0.179729 42.2186 0.231983 42.2378 0.289489C42.257 0.346995 42.2626 0.408179 42.2541 0.468207V7.39921H45.2771C45.4046 7.38783 45.5328 7.41352 45.6461 7.47321C45.7201 7.47321 45.7931 7.62021 45.7931 7.84221V9.75921C45.7905 9.89598 45.7383 10.0271 45.6461 10.1282L45.2781 10.1262Z" fill="#FF7F00"/>
<path d="M60.1721 16.6171C60.0251 16.7641 59.8771 16.8381 59.7301 16.7641C59.5262 16.6809 59.329 16.5823 59.1401 16.4691C58.7998 16.2242 58.4791 15.9531 58.1811 15.6581C57.8121 15.2891 57.4441 14.9941 57.0011 14.5521C56.6321 14.1831 56.1901 13.7411 55.8211 13.2981C55.4543 12.874 55.1099 12.431 54.7891 11.9711C53.9337 13.0253 52.9975 14.0113 51.9891 14.9201C50.9656 15.8598 49.8545 16.6992 48.6711 17.4271C48.5567 17.4956 48.4322 17.5452 48.3021 17.5741C48.2281 17.5741 48.0811 17.5001 47.9331 17.2791L46.7531 15.7311C46.6973 15.673 46.6551 15.6032 46.6297 15.5267C46.6043 15.4503 46.5962 15.3691 46.6061 15.2891C46.6801 15.2151 46.7531 15.0681 46.9011 14.9941C48.8215 13.7111 50.5369 12.1451 51.9891 10.3491C52.6761 9.50014 53.316 8.61415 53.9061 7.69513C54.4144 6.83009 54.8345 5.91617 55.1601 4.96714C55.2341 4.67214 55.1601 4.45113 54.7911 4.45113H48.8181C48.6573 4.46113 48.4989 4.40844 48.3761 4.30414C48.309 4.19357 48.2829 4.063 48.3021 3.93513V2.16514C48.2954 2.09636 48.3052 2.02698 48.3308 1.96278C48.3564 1.89859 48.3969 1.84145 48.4491 1.79613C48.5597 1.72908 48.6902 1.7029 48.8181 1.72213H56.9291C57.4804 1.68841 58.0267 1.84438 58.4771 2.16413C58.6628 2.29917 58.8133 2.47685 58.916 2.6822C59.0186 2.88755 59.0705 3.11457 59.0671 3.34413C59.079 3.56803 59.0541 3.79236 58.9931 4.00813C58.9191 4.22913 58.9191 4.45013 58.8461 4.59813C58.6167 5.43152 58.3207 6.24514 57.9611 7.03114C57.5614 7.88871 57.1185 8.72545 56.6341 9.53814C56.9378 10.0527 57.3098 10.5236 57.7401 10.9381C58.1091 11.3801 58.5511 11.8231 58.9941 12.2651C59.3909 12.6568 59.8092 13.026 60.2471 13.3711C60.6891 13.7401 61.0581 14.0351 61.4271 14.3301C61.7221 14.5511 61.7221 14.8461 61.4271 15.1411L60.1721 16.6171ZM65.7721 23.2531H63.3391C63.2112 23.2724 63.0807 23.2462 62.9701 23.1791C62.8961 23.1051 62.8961 23.0321 62.8961 22.8101V0.468135C62.8709 0.406331 62.8644 0.33845 62.8776 0.273008C62.8908 0.207565 62.923 0.147472 62.9702 0.100267C63.0174 0.0530612 63.0775 0.0208451 63.143 0.00765718C63.2084 -0.00553077 63.2763 0.000897544 63.3381 0.0261356H65.7711C65.8329 0.000897544 65.9008 -0.00553077 65.9662 0.00765718C66.0317 0.0208451 66.0918 0.0530612 66.139 0.100267C66.1862 0.147472 66.2184 0.207565 66.2316 0.273008C66.2447 0.33845 66.2383 0.406331 66.2131 0.468135V22.7371C66.2131 22.9581 66.2131 23.0321 66.1391 23.1061C66.1451 23.1791 65.9981 23.2531 65.7761 23.2531H65.7721Z" fill="#FF7F00"/>
<path d="M90.5521 19.6392H69.3901C69.2293 19.6492 69.0709 19.5966 68.9481 19.4922C68.881 19.3817 68.8548 19.2511 68.8741 19.1232V17.3532C68.8548 17.2254 68.881 17.0948 68.9481 16.9842C69.0709 16.8799 69.2293 16.8273 69.3901 16.8372H74.1831V10.3492C74.1579 10.2874 74.1514 10.2196 74.1646 10.1541C74.1778 10.0887 74.21 10.0286 74.2572 9.98138C74.3045 9.93417 74.3645 9.90196 74.43 9.88877C74.4954 9.87558 74.5633 9.88201 74.6251 9.90725H77.0581C77.2791 9.90725 77.3531 9.90725 77.4271 9.98125C77.4942 10.0918 77.5204 10.2224 77.5011 10.3502V16.8392H79.4921V10.3492C79.4669 10.2874 79.4604 10.2196 79.4736 10.1541C79.4868 10.0887 79.519 10.0286 79.5662 9.98138C79.6134 9.93417 79.6735 9.90196 79.739 9.88877C79.8044 9.87558 79.8723 9.88201 79.9341 9.90725H82.3671C82.5881 9.90725 82.7361 9.90725 82.8091 9.98125C82.8762 10.0918 82.9024 10.2224 82.8831 10.3502V16.8392H90.4041C90.7731 16.8392 90.9201 16.9862 90.9201 17.3552V19.1252C91.0691 19.4922 90.9211 19.6392 90.5521 19.6392ZM87.7521 13.2982C87.7621 13.459 87.7094 13.6175 87.6051 13.7402C87.5311 13.8142 87.3841 13.8142 87.0891 13.7402L84.9511 13.5192C84.6564 13.5192 84.5091 13.4456 84.5091 13.2982V12.8562C84.649 12.2493 84.7476 11.6335 84.8041 11.0132C84.8781 10.3492 84.9511 9.68625 85.0251 8.94825C85.0857 8.26035 85.1094 7.56969 85.0961 6.87925V4.67125C85.1035 4.48796 85.052 4.30714 84.9491 4.15525C84.7499 4.03472 84.5166 3.98306 84.2851 4.00825H72.3401C72.2123 4.02748 72.0817 4.0013 71.9711 3.93425C71.9189 3.88893 71.8784 3.83179 71.8528 3.7676C71.8272 3.7034 71.8174 3.63402 71.8241 3.56525V1.72125C71.8267 1.58447 71.8789 1.4533 71.9711 1.35225C72.0817 1.2852 72.2123 1.25901 72.3401 1.27825H86.7191C87.1896 1.25526 87.655 1.38466 88.0461 1.64725C88.2101 1.83893 88.3337 2.0617 88.4097 2.30224C88.4856 2.54278 88.5123 2.79616 88.4881 3.04725C88.4881 5.18525 88.4141 7.32425 88.2671 8.94725C88.2401 10.4112 88.067 11.8688 87.7501 13.2982H87.7521Z" fill="#FF7F00"/>
<path d="M103.75 16.3951C103.147 16.5677 102.53 16.6911 101.907 16.7641C101.243 16.8381 100.58 16.9111 99.8421 16.9851C99.1557 17.048 98.4663 17.0727 97.7771 17.0591H96.0071C95.4692 17.0716 94.945 16.8882 94.5321 16.5431C94.3682 16.3515 94.2445 16.1287 94.1686 15.8881C94.0926 15.6476 94.0659 15.3942 94.0901 15.1431V3.34314C94.0746 3.07063 94.0996 2.79733 94.1641 2.53213C94.2063 2.37106 94.2816 2.22054 94.3851 2.09013C94.45 2.01812 94.5297 1.96106 94.6188 1.9229C94.7079 1.88474 94.8042 1.86639 94.9011 1.86913C95.1657 1.8007 95.4396 1.7757 95.7121 1.79513H102.275C102.403 1.7759 102.534 1.80208 102.644 1.86913C102.718 1.94313 102.718 2.01614 102.718 2.23814V4.15514C102.743 4.21694 102.75 4.28482 102.737 4.35026C102.723 4.41571 102.691 4.4758 102.644 4.523C102.597 4.57021 102.537 4.60243 102.471 4.61561C102.406 4.6288 102.338 4.62237 102.276 4.59713H97.6311C97.4841 4.59713 97.4101 4.59713 97.3361 4.67113C97.3361 4.74513 97.2621 4.81813 97.2621 4.89213V13.8921C97.2428 14.02 97.269 14.1506 97.3361 14.2611C97.4101 14.3351 97.4831 14.3351 97.7051 14.3351H98.9591C99.427 14.3472 99.8951 14.3225 100.359 14.2611C100.875 14.1871 101.318 14.1871 101.834 14.1141C102.35 14.0411 102.793 13.9671 103.161 13.8931H103.603C103.648 13.9283 103.685 13.973 103.71 14.024C103.735 14.0751 103.749 14.1311 103.75 14.1881L104.045 15.8881V16.2571C103.957 16.3227 103.857 16.3697 103.75 16.3951ZM101.612 10.3491C101.484 10.3684 101.354 10.3422 101.243 10.2751C101.151 10.1741 101.099 10.0429 101.096 9.90614V8.06313C101.089 7.99436 101.099 7.92498 101.125 7.86078C101.15 7.79659 101.191 7.73945 101.243 7.69413C101.365 7.66224 101.488 7.63753 101.612 7.62013H105.373V0.910134C105.373 0.615134 105.52 0.394136 105.815 0.394136H107.953C108.015 0.368898 108.083 0.362469 108.148 0.375657C108.214 0.388845 108.274 0.421061 108.321 0.468267C108.368 0.515472 108.4 0.575565 108.414 0.641008C108.427 0.706451 108.42 0.774331 108.395 0.836135V21.8521C108.395 22.0731 108.395 22.1471 108.321 22.2211C108.247 22.2951 108.174 22.2951 107.952 22.2951H105.891C105.763 22.3144 105.633 22.2882 105.522 22.2211C105.448 22.1471 105.448 22.0741 105.448 21.8521V10.3521L101.612 10.3491ZM112.746 23.1791H110.391C110.329 23.2044 110.261 23.2108 110.196 23.1976C110.131 23.1844 110.07 23.1522 110.023 23.105C109.976 23.0578 109.944 22.9977 109.931 22.9323C109.917 22.8668 109.924 22.7989 109.949 22.7371V0.468135C109.924 0.406331 109.917 0.33845 109.931 0.273008C109.944 0.207565 109.976 0.147472 110.023 0.100267C110.07 0.0530612 110.131 0.0208451 110.196 0.00765718C110.261 -0.00553077 110.329 0.000897544 110.391 0.0261356H112.677C112.739 0.000897544 112.807 -0.00553077 112.872 0.00765718C112.938 0.0208451 112.998 0.0530612 113.045 0.100267C113.092 0.147472 113.124 0.207565 113.138 0.273008C113.151 0.33845 113.144 0.406331 113.119 0.468135V22.6631C113.138 22.791 113.112 22.9216 113.045 23.0321C113.041 23.1051 112.967 23.1791 112.746 23.1791Z" fill="#FF7F00"/>
<path d="M122.555 17.4262C121.709 17.4232 120.876 17.2211 120.122 16.8362C119.394 16.4402 118.764 15.8859 118.279 15.2142C117.741 14.4545 117.342 13.6058 117.099 12.7072C116.793 11.6785 116.643 10.6094 116.657 9.53616C116.644 8.43895 116.793 7.34581 117.099 6.29216C117.342 5.3935 117.741 4.54478 118.279 3.78516C118.743 3.09475 119.378 2.53602 120.122 2.16316C120.876 1.77823 121.709 1.57611 122.555 1.57316C123.425 1.57598 124.282 1.7778 125.062 2.16316C125.812 2.55684 126.467 3.11056 126.979 3.78516C127.517 4.54478 127.917 5.3935 128.159 6.29216C128.749 8.41493 128.749 10.6584 128.159 12.7812C127.902 13.6743 127.503 14.5205 126.979 15.2882C126.484 15.9791 125.825 16.5365 125.062 16.9102C124.279 17.2787 123.42 17.4556 122.555 17.4262ZM122.555 4.44816C122.158 4.4578 121.773 4.58633 121.449 4.81716C121.082 5.09158 120.779 5.44403 120.564 5.84916C120.3 6.36274 120.101 6.90774 119.974 7.47116C119.82 8.14845 119.746 8.84154 119.753 9.53616C119.745 10.2064 119.82 10.875 119.974 11.5272C120.093 12.0931 120.291 12.6392 120.564 13.1492C120.756 13.5697 121.063 13.9275 121.449 14.1812C121.778 14.4017 122.16 14.5292 122.555 14.5502C122.954 14.5524 123.343 14.4227 123.661 14.1812C124.029 13.9067 124.331 13.5543 124.546 13.1492C124.81 12.6356 125.009 12.0906 125.136 11.5272C125.291 10.875 125.365 10.2064 125.357 9.53616C125.361 8.84174 125.286 8.14912 125.136 7.47116C125.03 6.90181 124.83 6.35383 124.546 5.84916C124.354 5.42862 124.047 5.07087 123.661 4.81716C123.343 4.57632 122.954 4.4473 122.555 4.45016V4.44816ZM133.689 23.1032H131.329C131.201 23.1224 131.071 23.0962 130.96 23.0292C130.886 22.9552 130.886 22.8822 130.886 22.6602V0.46816C130.867 0.340289 130.893 0.209695 130.96 0.0991603C131.034 0.0251603 131.107 0.025159 131.329 0.025159H133.689C133.751 -7.9019e-05 133.819 -0.00650733 133.884 0.00668062C133.95 0.0198686 134.01 0.0520865 134.057 0.0992919C134.104 0.146497 134.136 0.20659 134.15 0.272033C134.163 0.337476 134.156 0.405356 134.131 0.46716V22.6632C134.131 22.8842 134.131 22.9582 134.057 23.0322C133.946 23.0989 133.816 23.1247 133.688 23.1052L133.689 23.1032Z" fill="#FF7F00"/>
<path d="M147.476 10.4972C146.591 10.5712 145.633 10.5712 144.676 10.6442C143.717 10.6442 142.759 10.7182 141.8 10.7182V13.9622C141.792 14.0222 141.797 14.0834 141.816 14.1409C141.836 14.1984 141.868 14.2506 141.911 14.2935C141.954 14.3364 142.006 14.3687 142.063 14.3879C142.121 14.4071 142.182 14.4127 142.242 14.4042C143.274 14.4042 144.454 14.4042 145.781 14.3302C147.067 14.2599 148.347 14.1123 149.615 13.8882H149.984C150.058 13.9622 150.058 14.0352 150.131 14.1832L150.426 15.9532C150.447 16.0821 150.421 16.2142 150.354 16.3262C150.309 16.3783 150.252 16.4189 150.187 16.4445C150.123 16.47 150.054 16.4799 149.985 16.4732C149.321 16.6202 148.585 16.7682 147.699 16.9152C146.813 17.0622 145.999 17.1362 145.118 17.2102C144.237 17.2842 143.348 17.2842 142.537 17.2842H140.254C139.818 17.2926 139.387 17.1911 139 16.9892C138.705 16.7682 138.558 16.3992 138.558 15.6622V3.27016C138.543 2.99766 138.568 2.72436 138.632 2.45916C138.674 2.29809 138.75 2.14756 138.853 2.01716C138.918 1.94514 138.998 1.88808 139.087 1.84992C139.176 1.81176 139.272 1.79342 139.369 1.79616C139.634 1.72772 139.908 1.70273 140.18 1.72216H148.144C148.272 1.70293 148.403 1.72911 148.513 1.79616C148.587 1.87016 148.587 1.94316 148.587 2.16516V4.08216C148.612 4.14396 148.619 4.21184 148.606 4.27729C148.592 4.34273 148.56 4.40282 148.513 4.45003C148.466 4.49723 148.406 4.52945 148.34 4.54264C148.275 4.55583 148.207 4.5494 148.145 4.52416H142.172C142.024 4.52416 141.951 4.52416 141.877 4.59816C141.877 4.67216 141.803 4.74516 141.803 4.81916V7.99016H144.679C145.638 7.99016 146.522 7.91616 147.333 7.91616C147.702 7.91616 147.849 7.99016 147.849 8.28516V10.1262C147.853 10.1759 147.845 10.2259 147.828 10.2726C147.81 10.3193 147.783 10.3617 147.747 10.3969C147.712 10.432 147.669 10.4592 147.623 10.4765C147.576 10.4938 147.526 10.5009 147.476 10.4972ZM156.029 23.1062H153.669C153.541 23.1254 153.411 23.0992 153.3 23.0322C153.226 22.9582 153.226 22.8852 153.226 22.6632V10.4262H150.054C149.926 10.4454 149.796 10.4192 149.685 10.3522C149.633 10.3068 149.592 10.2497 149.567 10.1855C149.541 10.1213 149.531 10.0519 149.538 9.98316V8.13716C149.541 8.00039 149.593 7.86922 149.685 7.76816C149.796 7.70111 149.926 7.67493 150.054 7.69416H153.225V0.46816C153.206 0.340291 153.232 0.209726 153.299 0.0991603C153.373 0.0251603 153.446 0.025159 153.668 0.025159H156.028C156.09 -7.9019e-05 156.158 -0.00650733 156.223 0.00668062C156.289 0.0198686 156.349 0.0520865 156.396 0.0992919C156.443 0.146497 156.475 0.20659 156.489 0.272033C156.502 0.337476 156.495 0.405356 156.47 0.46716V22.6632C156.47 22.8842 156.47 22.9582 156.396 23.0322C156.322 23.1062 156.254 23.1062 156.029 23.1062Z" fill="#FF7F00"/>
</svg>
