<svg id="logo_orange" xmlns="http://www.w3.org/2000/svg" width="210" height="29.347" viewBox="0 0 210 29.347">
  <path id="패스_1" data-name="패스 1" d="M26,34.471c1.548,0,2.8-2.507,2.8-5.678v-.516c0-3.1-1.254-5.678-2.8-5.678s-2.8,2.507-2.8,5.678v.516C23.2,31.964,24.454,34.471,26,34.471Z" transform="translate(-7.421 -22.305)" fill="#ff8908"/>
  <path id="패스_2" data-name="패스 2" d="M45.673,40.225A20.766,20.766,0,0,1,8.215,39.93l3.539-1.18L4.9,34.4,1.8,42.069l3.687-1.18a23.639,23.639,0,0,0,42.767.59Z" transform="translate(-1.8 -25.404)" fill="#ff8908"/>
  <ellipse id="타원_1" data-name="타원 1" cx="2.802" cy="5.751" rx="2.802" ry="5.751" transform="translate(29.126)" fill="#ff8908"/>
  <path id="패스_3" data-name="패스 3" d="M87.967,42.291c-.147.147-.295.221-.442.147a4.347,4.347,0,0,1-.59-.295,8.038,8.038,0,0,1-.959-.811c-.369-.369-.737-.664-1.18-1.106-.369-.369-.811-.811-1.18-1.254a16.2,16.2,0,0,1-1.032-1.327,26.157,26.157,0,0,1-2.8,2.949A21.773,21.773,0,0,1,76.465,43.1a1.246,1.246,0,0,1-.369.147c-.074,0-.221-.074-.369-.295l-1.18-1.548a.542.542,0,0,1-.147-.442c.074-.074.147-.221.295-.295a22.911,22.911,0,0,0,5.088-4.645A29.9,29.9,0,0,0,81.7,33.369a14.979,14.979,0,0,0,1.254-2.728c.074-.295,0-.516-.369-.516H76.612a.623.623,0,0,1-.442-.147.553.553,0,0,1-.074-.369v-1.77a.433.433,0,0,1,.147-.369.553.553,0,0,1,.369-.074h8.111a2.419,2.419,0,0,1,1.548.442,1.433,1.433,0,0,1,.59,1.18,2.041,2.041,0,0,1-.074.664,3.741,3.741,0,0,0-.147.664,16.147,16.147,0,0,1-.885,2.433,27.971,27.971,0,0,1-1.327,2.507,6.608,6.608,0,0,0,1.106,1.4c.369.442.811.885,1.254,1.327a15.015,15.015,0,0,0,1.254,1.106c.442.369.811.664,1.18.959.295.221.295.516,0,.811Zm5.678,6.636H91.212a.553.553,0,0,1-.369-.074c-.074-.074-.074-.147-.074-.369V26.142a.339.339,0,0,1,.442-.442h2.433a.339.339,0,0,1,.442.442V48.411c0,.221,0,.295-.074.369A.563.563,0,0,1,93.645,48.927Z" transform="translate(-20.868 -23.119)" fill="#ff8908"/>
  <path id="패스_4" data-name="패스 4" d="M120.661,38.972a21.234,21.234,0,0,1-2.433.369c-.885.074-1.77.221-2.728.295s-1.843.147-2.8.147h-2.655a2.75,2.75,0,0,1-.885-.147,1.482,1.482,0,0,1-.59-.295,1.188,1.188,0,0,1-.295-.516,2.522,2.522,0,0,1-.074-.811V33.295c0-.516.074-.885.295-1.032a1.531,1.531,0,0,1,1.106-.295h5.309c.147,0,.221,0,.295-.074s.074-.147.074-.295V29.977c0-.147,0-.221-.074-.295s-.147-.074-.295-.074h-6.12c-.295,0-.516-.147-.516-.442V27.4a.563.563,0,0,1,.147-.369.553.553,0,0,1,.369-.074h8.332a3.039,3.039,0,0,1,.885.074,1.188,1.188,0,0,1,.516.295.669.669,0,0,1,.221.516,2.522,2.522,0,0,1,.074.811v4.2a1.9,1.9,0,0,1-.369,1.327,1.812,1.812,0,0,1-1.254.369h-5.162c-.221,0-.295.074-.295.295V36.76c0,.221.147.295.369.295a40.735,40.735,0,0,0,4.277-.147c1.4-.147,2.728-.295,4.055-.516h.295c.074.074.074.147.147.295l.295,1.77v.369A1.367,1.367,0,0,1,120.661,38.972Zm5.309,9.954H112.55a1.991,1.991,0,0,1-1.4-.369,2.129,2.129,0,0,1-.369-1.4v-4.94a.466.466,0,0,1,.516-.516h2.433a.466.466,0,0,1,.516.516v3.539a.348.348,0,0,0,.369.369H125.97a.665.665,0,0,1,.369.074.433.433,0,0,1,.147.369v1.917c0,.221-.074.369-.147.369A3.194,3.194,0,0,1,125.97,48.927ZM128.551,35.8h-3.023v6.046a.552.552,0,0,1-.074.369c-.074.074-.147.074-.369.074h-2.507a.553.553,0,0,1-.369-.074.563.563,0,0,1-.147-.369V26.142c0-.295.147-.442.516-.442h2.507a.391.391,0,0,1,.442.442v6.931h3.023a.665.665,0,0,1,.369.074c.074,0,.147.147.147.369v1.917a.563.563,0,0,1-.147.369Z" transform="translate(-29.745 -23.119)" fill="#ff8908"/>
  <path id="패스_5" data-name="패스 5" d="M151.167,42.291c-.147.147-.295.221-.442.147a4.347,4.347,0,0,1-.59-.295,8.041,8.041,0,0,1-.959-.811c-.369-.369-.737-.664-1.18-1.106-.369-.369-.811-.811-1.18-1.254a16.19,16.19,0,0,1-1.032-1.327,26.158,26.158,0,0,1-2.8,2.949,21.773,21.773,0,0,1-3.318,2.507,1.246,1.246,0,0,1-.369.147c-.074,0-.221-.074-.369-.295l-1.18-1.548a.542.542,0,0,1-.147-.442c.074-.074.147-.221.295-.295a22.911,22.911,0,0,0,5.088-4.645,29.9,29.9,0,0,0,1.917-2.654,14.979,14.979,0,0,0,1.254-2.728c.074-.295,0-.516-.369-.516h-5.973a.623.623,0,0,1-.442-.147.553.553,0,0,1-.074-.369v-1.77a.433.433,0,0,1,.147-.369.553.553,0,0,1,.369-.074h8.111a2.419,2.419,0,0,1,1.548.442,1.433,1.433,0,0,1,.59,1.18,2.042,2.042,0,0,1-.074.664c-.074.221-.074.442-.147.59a16.144,16.144,0,0,1-.885,2.433,27.975,27.975,0,0,1-1.327,2.507,6.607,6.607,0,0,0,1.106,1.4c.369.442.811.885,1.254,1.327a15.016,15.016,0,0,0,1.253,1.106c.442.369.811.664,1.18.959.295.221.295.516,0,.811Zm5.6,6.636h-2.433a.553.553,0,0,1-.369-.074c-.074-.074-.074-.147-.074-.369V26.142a.339.339,0,0,1,.442-.442h2.433a.339.339,0,0,1,.442.442V48.411c0,.221,0,.295-.074.369C157.14,48.853,156.993,48.927,156.771,48.927Z" transform="translate(-37.467 -23.119)" fill="#ff8908"/>
  <path id="패스_6" data-name="패스 6" d="M189.478,45.76H168.316a.623.623,0,0,1-.442-.147.552.552,0,0,1-.074-.369v-1.77a.552.552,0,0,1,.074-.369.623.623,0,0,1,.442-.147h4.793V36.47a.339.339,0,0,1,.442-.442h2.433c.221,0,.295,0,.369.074a.552.552,0,0,1,.074.369v6.489h1.991V36.47a.339.339,0,0,1,.442-.442h2.433c.221,0,.369,0,.442.074a.553.553,0,0,1,.074.369v6.489h7.521c.369,0,.516.147.516.516v1.77C189.995,45.613,189.847,45.76,189.478,45.76Zm-2.8-6.341a.623.623,0,0,1-.147.442c-.074.074-.221.074-.516,0l-2.138-.221q-.442,0-.442-.221v-.442a13.761,13.761,0,0,0,.295-1.843c.074-.664.147-1.327.221-2.065A19.318,19.318,0,0,0,184.022,33V30.792a.859.859,0,0,0-.147-.516,1.061,1.061,0,0,0-.664-.147H171.266a.553.553,0,0,1-.369-.074.433.433,0,0,1-.147-.369V27.842a.563.563,0,0,1,.147-.369.553.553,0,0,1,.369-.074h14.379a2.189,2.189,0,0,1,1.327.369,1.877,1.877,0,0,1,.442,1.4c0,2.138-.074,4.277-.221,5.9A21.977,21.977,0,0,1,186.676,39.419Z" transform="translate(-45.398 -23.566)" fill="#ff8908"/>
  <path id="패스_7" data-name="패스 7" d="M211.659,42.069a11.625,11.625,0,0,1-1.843.369c-.664.074-1.327.147-2.065.221a18.642,18.642,0,0,1-2.065.074h-1.77a2.22,2.22,0,0,1-1.475-.516,1.877,1.877,0,0,1-.442-1.4v-11.8a2.764,2.764,0,0,1,.074-.811,1.2,1.2,0,0,1,.221-.442.669.669,0,0,1,.516-.221,2.522,2.522,0,0,1,.811-.074h6.563a.553.553,0,0,1,.369.074c.074.074.074.147.074.369v1.917a.339.339,0,0,1-.442.442h-4.645c-.147,0-.221,0-.295.074,0,.074-.074.147-.074.221v9a.552.552,0,0,0,.074.369c.074.074.147.074.369.074h1.254a8.924,8.924,0,0,0,1.4-.074c.516-.074.959-.074,1.475-.147s.959-.147,1.327-.221h.442a.383.383,0,0,1,.147.295l.295,1.7v.369A.807.807,0,0,1,211.659,42.069Zm-2.138-6.046a.553.553,0,0,1-.369-.074.563.563,0,0,1-.147-.369V33.737a.433.433,0,0,1,.147-.369,3.194,3.194,0,0,1,.369-.074h3.761v-6.71c0-.295.147-.516.442-.516h2.138a.339.339,0,0,1,.442.442V47.526c0,.221,0,.295-.074.369s-.147.074-.369.074H213.8a.553.553,0,0,1-.369-.074c-.074-.074-.074-.147-.074-.369v-11.5Zm11.134,12.83H218.3a.339.339,0,0,1-.442-.442V26.142a.339.339,0,0,1,.442-.442h2.286a.339.339,0,0,1,.442.442V48.337a.552.552,0,0,1-.074.369C220.95,48.779,220.876,48.853,220.655,48.853Z" transform="translate(-54.381 -23.119)" fill="#ff8908"/>
  <path id="패스_8" data-name="패스 8" d="M238.5,43.1a5.389,5.389,0,0,1-2.433-.59,5.537,5.537,0,0,1-1.843-1.622,7.9,7.9,0,0,1-1.18-2.507,10.629,10.629,0,0,1-.442-3.171,11.136,11.136,0,0,1,.442-3.244,7.9,7.9,0,0,1,1.18-2.507,4.829,4.829,0,0,1,1.843-1.622,5.389,5.389,0,0,1,2.433-.59,5.7,5.7,0,0,1,2.507.59,5.781,5.781,0,0,1,1.917,1.622,7.9,7.9,0,0,1,1.18,2.507,12.117,12.117,0,0,1,0,6.489,8.741,8.741,0,0,1-1.18,2.507,5.135,5.135,0,0,1-1.917,1.622A5.45,5.45,0,0,1,238.5,43.1Zm0-12.978a1.987,1.987,0,0,0-1.106.369,3.106,3.106,0,0,0-.885,1.032,6.838,6.838,0,0,0-.59,1.622,8.863,8.863,0,0,0-.221,2.065,8.224,8.224,0,0,0,.221,1.991,6.093,6.093,0,0,0,.59,1.622,2.452,2.452,0,0,0,.885,1.032,2.194,2.194,0,0,0,1.106.369,1.811,1.811,0,0,0,1.106-.369,3.106,3.106,0,0,0,.885-1.032,6.839,6.839,0,0,0,.59-1.622,8.224,8.224,0,0,0,.221-1.991,9.328,9.328,0,0,0-.221-2.065,5.283,5.283,0,0,0-.59-1.622,2.452,2.452,0,0,0-.885-1.032A1.811,1.811,0,0,0,238.5,30.124Zm11.134,18.655h-2.36a.553.553,0,0,1-.369-.074c-.074-.074-.074-.147-.074-.369V26.142a.552.552,0,0,1,.074-.369c.074-.074.147-.074.369-.074h2.36a.339.339,0,0,1,.442.442V48.337c0,.221,0,.295-.074.369A.553.553,0,0,1,249.633,48.779Z" transform="translate(-62.417 -23.119)" fill="#ff8908"/>
  <path id="패스_9" data-name="패스 9" d="M271.222,36.171c-.885.074-1.843.074-2.8.147-.959,0-1.917.074-2.876.074v3.244a.391.391,0,0,0,.442.442c1.032,0,2.212,0,3.539-.074a32.073,32.073,0,0,0,3.834-.442h.369c.074.074.074.147.147.295l.295,1.77A.553.553,0,0,1,274.1,42a.433.433,0,0,1-.369.147c-.664.147-1.4.295-2.286.442s-1.7.221-2.581.295-1.77.074-2.581.074H264a2.6,2.6,0,0,1-1.254-.295c-.295-.221-.442-.59-.442-1.327V28.944a2.765,2.765,0,0,1,.074-.811,1.2,1.2,0,0,1,.221-.442.669.669,0,0,1,.516-.221,2.522,2.522,0,0,1,.811-.074h7.964a.553.553,0,0,1,.369.074c.074.074.074.147.074.369v1.917a.339.339,0,0,1-.442.442h-5.973c-.148,0-.221,0-.295.074,0,.074-.074.147-.074.221v3.171h2.876c.959,0,1.843-.074,2.654-.074.369,0,.516.074.516.369V35.8A.348.348,0,0,1,271.222,36.171Zm8.553,12.609h-2.36a.553.553,0,0,1-.369-.074c-.074-.074-.074-.147-.074-.369V36.1H273.8a.553.553,0,0,1-.369-.074.433.433,0,0,1-.147-.369V33.811a.563.563,0,0,1,.147-.369.553.553,0,0,1,.369-.074h3.171V26.142a.553.553,0,0,1,.074-.369c.074-.074.147-.074.369-.074h2.36a.339.339,0,0,1,.442.442V48.337c0,.221,0,.295-.074.369S280,48.779,279.775,48.779Z" transform="translate(-70.218 -23.119)" fill="#ff8908"/>
</svg>
