<svg xmlns="http://www.w3.org/2000/svg" width="92.736" height="57.766" viewBox="0 0 92.736 57.766">
  <g id="그룹_128" data-name="그룹 128" transform="translate(-821.564 -846.528)">
    <g id="그룹_79" data-name="그룹 79" transform="translate(747.617 326.03)">
      <g id="그룹_77" data-name="그룹 77" transform="translate(111.383 548.209)">
        <rect id="사각형_26" data-name="사각형 26" width="18.136" height="29.555" rx="9.068" transform="translate(0 0)" fill="none" stroke="#1d1d1f" stroke-linecap="round" stroke-linejoin="round" stroke-width="1"/>
        <circle id="타원_6" data-name="타원 6" cx="2.02" cy="2.02" r="2.02" transform="translate(7.048 6.536)" fill="#ff8908"/>
      </g>
    </g>
    <path id="패스_18326" data-name="패스 18326" d="M3.684.072C5.832.072,6.816-.984,6.816-2.22c0-3.06-5.172-1.668-5.172-3.972,0-.84.684-1.524,2.22-1.524a4.325,4.325,0,0,1,2.3.7l.3-.708a4.742,4.742,0,0,0-2.6-.744c-2.136,0-3.1,1.068-3.1,2.3,0,3.108,5.172,1.692,5.172,4,0,.828-.684,1.488-2.256,1.488A4.125,4.125,0,0,1,.912-1.7L.564-1.02A4.555,4.555,0,0,0,3.684.072Zm8.712,0A4.085,4.085,0,0,0,15.48-1.164l-.564-.564A3.3,3.3,0,0,1,12.432-.72,3.433,3.433,0,0,1,8.88-4.2a3.433,3.433,0,0,1,3.552-3.48,3.329,3.329,0,0,1,2.484,1l.564-.564a4.067,4.067,0,0,0-3.072-1.224A4.217,4.217,0,0,0,8-4.2,4.214,4.214,0,0,0,12.4.072ZM24.084,0,22.032-2.88a2.6,2.6,0,0,0,1.92-2.64c0-1.8-1.3-2.88-3.432-2.88H17.376V0h.888V-2.664H20.52a5.98,5.98,0,0,0,.672-.036L23.112,0ZM20.5-3.42H18.264V-7.632H20.5c1.68,0,2.568.768,2.568,2.112C23.064-4.2,22.176-3.42,20.5-3.42ZM29.724.072a4.224,4.224,0,0,0,4.4-4.272,4.224,4.224,0,0,0-4.4-4.272A4.227,4.227,0,0,0,25.308-4.2,4.227,4.227,0,0,0,29.724.072Zm0-.792a3.416,3.416,0,0,1-3.54-3.48,3.416,3.416,0,0,1,3.54-3.48A3.4,3.4,0,0,1,33.24-4.2,3.4,3.4,0,0,1,29.724-.72Zm6.4.72h5.592V-.768h-4.7V-8.4H36.12Zm7.068,0H48.78V-.768h-4.7V-8.4h-.888ZM53.4,0h3.42c2.688,0,4.5-1.728,4.5-4.2s-1.812-4.2-4.5-4.2H53.4Zm.888-.768V-7.632h2.484A3.369,3.369,0,0,1,60.444-4.2,3.369,3.369,0,0,1,56.772-.768Zm12.7.84a4.224,4.224,0,0,0,4.4-4.272,4.224,4.224,0,0,0-4.4-4.272A4.228,4.228,0,0,0,62.568-4.2,4.228,4.228,0,0,0,66.984.072Zm0-.792a3.416,3.416,0,0,1-3.54-3.48,3.416,3.416,0,0,1,3.54-3.48A3.4,3.4,0,0,1,70.5-4.2,3.4,3.4,0,0,1,66.984-.72ZM83.808-8.4l-2.46,7.26L78.876-8.4h-.828L75.54-1.176,73.116-8.4H72.2L75.036,0h.924l2.472-7.164L80.892,0h.936L84.66-8.4Zm8.616,0v6.816L87.012-8.4H86.28V0h.888V-6.816L92.568,0H93.3V-8.4Z" transform="translate(821 855)" fill="#1d1d1f"/>
  </g>
</svg>
